<svg width="562" height="282" viewBox="0 0 562 282" fill="none" xmlns="http://www.w3.org/2000/svg">
<rect x="2.5" y="2.5" width="322" height="181" rx="2.5" stroke="#0C0C0C" stroke-width="5"/>
<rect x="124.5" y="35.5" width="321" height="182" rx="2.5" fill="#DDE1E2" stroke="#080908" stroke-width="5"/>
<rect x="238.5" y="98.5" width="321" height="181" rx="2.5" fill="#DDE1E2" stroke="black" stroke-width="5" stroke-dasharray="8 8"/>
<g clip-path="url(#clip0_20_116)">
<path fill-rule="evenodd" clip-rule="evenodd" d="M538.762 241.765L536.75 238.122L540.649 238.123C540.753 238.123 540.875 238.194 540.931 238.289C540.993 238.393 541.309 238.926 541.69 239.564C542.146 240.329 542.69 241.243 543.002 241.765H538.762V241.765ZM531.552 263.828C531.457 264 531.335 264 531.294 264H529.701C528.858 264 527.886 263.998 527.306 263.998L533.5 252.665C533.661 252.373 533.557 252.002 533.271 251.839C533.182 251.788 533.083 251.761 532.982 251.761L522.427 251.776L520.327 248.071H535.703C535.704 248.071 535.706 248.071 535.707 248.071C535.709 248.071 535.71 248.071 535.712 248.071C535.721 248.071 535.729 248.068 535.737 248.068C535.771 248.066 535.805 248.062 535.839 248.054C535.864 248.047 535.89 248.039 535.913 248.03C535.926 248.025 535.94 248.019 535.952 248.014C536.072 247.962 536.171 247.87 536.234 247.754L538.769 242.978H542.954L531.552 263.828ZM526.277 263.397C526.142 263.171 525.967 262.877 525.776 262.558C525.136 261.48 524.316 260.101 524.223 259.949C524.192 259.899 524.178 259.774 524.243 259.654C524.392 259.382 527.195 254.235 527.878 252.981L531.972 252.976L526.277 263.397ZM519.297 256.305L517.262 252.621L519.313 248.703L521.37 252.332C520.731 253.559 519.733 255.472 519.297 256.305ZM516.566 256.878C515.531 256.878 514.5 256.878 514.35 256.878C514.249 256.878 514.127 256.806 514.071 256.712L513.409 255.6C512.936 254.807 512.333 253.795 512 253.235H516.238L518.25 256.878C517.811 256.878 517.189 256.878 516.566 256.878ZM523.448 231.174C523.543 231 523.665 231 523.704 231H527.708L521.497 242.333C521.492 242.343 521.489 242.352 521.484 242.363C521.475 242.382 521.467 242.401 521.46 242.422C521.453 242.441 521.447 242.46 521.443 242.48C521.438 242.501 521.433 242.517 521.43 242.536C521.427 242.558 521.424 242.58 521.424 242.603C521.424 242.613 521.421 242.622 521.421 242.633C521.421 242.641 521.422 242.648 521.424 242.656C521.424 242.678 521.427 242.7 521.43 242.722C521.432 242.741 521.435 242.758 521.44 242.777C521.444 242.796 521.45 242.815 521.457 242.834C521.463 242.853 521.469 242.87 521.477 242.889C521.484 242.908 521.494 242.924 521.503 242.94C521.512 242.956 521.522 242.973 521.534 242.989C521.545 243.005 521.557 243.021 521.571 243.035C521.584 243.049 521.596 243.063 521.61 243.077C521.624 243.092 521.638 243.101 521.653 243.114C521.67 243.126 521.688 243.139 521.705 243.15C521.711 243.155 521.717 243.16 521.723 243.164C521.729 243.169 521.737 243.169 521.745 243.174C521.776 243.19 521.808 243.204 521.841 243.213C521.853 243.216 521.864 243.221 521.877 243.224C521.92 243.235 521.965 243.242 522.011 243.242C522.011 243.242 522.011 243.242 522.013 243.242H522.015H522.278C522.28 243.242 522.281 243.242 522.281 243.242L532.572 243.227C532.844 243.709 533.353 244.618 533.785 245.39C534.117 245.984 534.393 246.474 534.61 246.859H519.296C519.29 246.859 519.283 246.861 519.276 246.863C519.06 246.864 518.863 246.987 518.761 247.18L516.225 252.024H512.048C513.872 248.682 523.326 231.395 523.448 231.174ZM528.731 231.618L529.103 232.242C529.755 233.34 530.678 234.889 530.775 235.051C530.806 235.101 530.82 235.226 530.755 235.346L527.122 242.016L523.03 242.021L528.731 231.618ZM535.701 238.692L537.736 242.378L535.661 246.288C535.413 245.848 535.106 245.299 534.818 244.784C534.247 243.766 533.832 243.025 533.598 242.611C534.043 241.787 535.211 239.602 535.701 238.692Z" fill="black"/>
</g>
<defs>
<clipPath id="clip0_20_116">
<rect width="31" height="33" fill="white" transform="translate(512 231)"/>
</clipPath>
</defs>
</svg>
