<svg width="111" height="118" viewBox="0 0 111 118" fill="none" xmlns="http://www.w3.org/2000/svg">
<g clip-path="url(#clip0_27_208)">
<path fill-rule="evenodd" clip-rule="evenodd" d="M95.8264 38.4917L88.6225 25.4653L102.581 25.4709C102.953 25.4709 103.391 25.7251 103.591 26.0641C103.813 26.4369 104.945 28.3406 106.31 30.6227C107.942 33.3568 109.89 36.6275 111.006 38.4917H95.8264V38.4917ZM70.0077 117.384C69.6692 118 69.2308 118 69.0864 118H63.381C60.3618 118 56.882 117.994 54.8063 117.994L76.9841 77.4691C77.5613 76.4241 77.1895 75.0966 76.1627 74.5147C75.8464 74.334 75.4911 74.2379 75.1304 74.2379L37.3349 74.2888L29.8146 61.0421H84.8707C84.8762 61.0421 84.8818 61.0421 84.8873 61.0421C84.8929 61.0421 84.8984 61.0421 84.904 61.0421C84.9373 61.0421 84.965 61.0308 84.9928 61.0308C85.1149 61.0251 85.237 61.0082 85.3591 60.9799C85.4479 60.9574 85.5422 60.9291 85.6255 60.8952C85.6699 60.8783 85.7198 60.8557 85.7642 60.8387C86.1916 60.6523 86.5468 60.3247 86.7743 59.9067L95.8486 42.83H110.834L70.0077 117.384ZM51.1211 115.842C50.6382 115.034 50.0111 113.984 49.3284 112.843C47.0363 108.99 44.1003 104.059 43.7673 103.516C43.6563 103.335 43.6064 102.889 43.8395 102.46C44.3723 101.488 54.4067 83.0841 56.8542 78.5989L71.5118 78.5819L51.1211 115.842ZM26.1294 90.4842L18.8423 77.3109L26.1849 63.3016L33.5498 76.2772C31.2632 80.6664 27.689 87.5072 26.1294 90.4842ZM16.3503 92.5347C12.6429 92.5347 8.95216 92.5347 8.41381 92.5347C8.05306 92.5347 7.61461 92.2749 7.41481 91.9416L5.04495 87.9648C3.3522 85.129 1.19325 81.5081 0 79.5084H15.1737L22.3776 92.5347C20.807 92.5347 18.5814 92.5347 16.3503 92.5347ZM40.9923 0.62138C41.3309 0 41.7693 0 41.9081 0H56.2437L34.0049 40.5253C33.9882 40.5592 33.9771 40.593 33.9605 40.6326C33.9272 40.7004 33.8994 40.7682 33.8717 40.8416C33.8495 40.9094 33.8273 40.9772 33.8106 41.0506C33.794 41.124 33.7773 41.1805 33.7662 41.2483C33.7551 41.3274 33.744 41.4065 33.744 41.4912C33.744 41.5251 33.7329 41.559 33.7329 41.5985C33.7329 41.6268 33.7385 41.6494 33.744 41.6776C33.744 41.7567 33.7551 41.8358 33.7662 41.9149C33.7718 41.9827 33.7829 42.0448 33.7995 42.1126C33.8162 42.1804 33.8384 42.2482 33.8606 42.316C33.8828 42.3837 33.905 42.4459 33.9327 42.5137C33.9605 42.5815 33.9938 42.6379 34.0271 42.6944C34.0604 42.7509 34.0937 42.8131 34.1381 42.8696C34.1769 42.926 34.2213 42.9825 34.2713 43.0334C34.3157 43.0842 34.3601 43.1351 34.41 43.1859C34.46 43.2367 34.5099 43.2706 34.5654 43.3158C34.6265 43.361 34.6875 43.4062 34.7486 43.4457C34.7708 43.4627 34.793 43.4796 34.8152 43.4966C34.8374 43.5135 34.8651 43.5135 34.8929 43.5305C35.0039 43.587 35.1204 43.6378 35.237 43.6717C35.2814 43.683 35.3202 43.6999 35.3646 43.7112C35.52 43.7508 35.681 43.7734 35.8475 43.7734C35.8475 43.7734 35.8475 43.7734 35.853 43.7734H35.8586H36.8021C36.8076 43.7734 36.8132 43.7734 36.8132 43.7734L73.6596 43.7225C74.6364 45.4455 76.4569 48.6936 78.0053 51.4559C79.193 53.5799 80.1809 55.331 80.9579 56.7094H26.1239C26.1017 56.7094 26.0795 56.715 26.0517 56.7207C25.2803 56.7263 24.5754 57.1669 24.2091 57.8561L15.1293 75.1757H0.17205C6.7044 63.2282 40.5539 1.41223 40.9923 0.62138ZM59.9067 2.20872L61.2387 4.44004C63.5753 8.36603 66.8775 13.9076 67.2272 14.4838C67.3382 14.6646 67.3881 15.1108 67.155 15.5401L54.1458 39.3898L39.4938 39.4068L59.9067 2.20872ZM84.8651 27.5045L92.1523 40.6834L84.7208 54.6645C83.8328 53.0941 82.7339 51.1283 81.7016 49.2867C79.6592 45.6488 78.1718 42.9995 77.3338 41.5195C78.9266 38.5707 83.1113 30.7583 84.8651 27.5045Z" fill="black"/>
</g>
<defs>
<clipPath id="clip0_27_208">
<rect width="111" height="118" fill="white"/>
</clipPath>
</defs>
</svg>
