<svg width="152" height="152" viewBox="0 0 152 152" fill="none" xmlns="http://www.w3.org/2000/svg">
<circle cx="76" cy="76" r="58" fill="white" stroke="white" stroke-width="36"/>
<path fill-rule="evenodd" clip-rule="evenodd" d="M135.987 60.8048C122.138 62.8925 108.353 65.0522 95.0545 67.7432C94.9434 67.7617 94.9571 68.6089 94.9758 69.7713C94.9905 70.679 95.0082 71.779 94.9721 72.8268L137.779 81.3296C137.714 84.1831 137.395 87.0191 136.849 89.8134C136.105 93.3932 135.053 96.8603 133.722 100.185C126.331 118.236 109.814 132.916 92.0633 136.532C91.8874 135.811 91.7139 135.086 91.524 134.293C91.367 133.638 91.1988 132.936 91.0086 132.149L77.8822 135.667L77.668 135.099C78.7017 134.492 79.7278 133.869 80.7542 133.245C83.115 131.811 85.477 130.376 87.9351 129.142C90.8191 127.7 91.1981 125.813 89.8632 122.847L77.7504 126.143C77.6435 125.962 77.5448 125.781 77.4461 125.6L77.4455 125.599C78.3489 125.047 79.2443 124.481 80.1395 123.916C82.249 122.584 84.3573 121.252 86.5672 120.095C89.2288 118.719 90.2752 117.005 88.7756 113.669L77.5773 116.47L77.3549 115.967C78.2069 115.424 79.0422 114.865 79.8766 114.306C81.7861 113.028 83.6915 111.753 85.7844 110.669C88.792 109.112 89.0969 107.127 87.6714 104.243L77.7009 106.888L77.4043 106.253C77.951 105.881 78.4973 105.502 79.0457 105.121C81.0435 103.736 83.0701 102.331 85.2488 101.128C88.0257 99.596 87.9598 97.668 86.765 94.9738L77.5444 97.2231L76.9017 96.0449C78.4163 95.0037 79.9228 93.9495 81.4293 92.8954C85.1681 90.2792 88.9073 87.6629 92.772 85.2433C94.8469 83.9439 94.6624 82.4501 94.462 80.8274C94.3536 79.9498 94.2405 79.0344 94.4777 78.0916H60.3145C58.8148 78.0834 57.5046 78.4294 57.8424 80.1514C57.9311 80.6036 57.9432 81.0455 57.955 81.4813C57.9883 82.705 58.0202 83.8798 59.7459 85.095C60.8163 85.8469 61.7326 86.3647 62.4965 86.7964C64.7965 88.0962 65.7162 88.616 65.3079 92.3949C64.2433 102.026 63.1189 111.634 61.9951 121.238C61.4489 125.905 60.9029 130.571 60.3639 135.239C60.2335 135.851 60.0712 136.456 59.8777 137.051C58.7955 136.644 57.7176 136.268 56.6508 135.897C54.4363 135.125 52.2698 134.369 50.2122 133.385C31.5732 124.421 19.7817 109.928 15.2991 89.7172C15.1886 89.2521 15.0672 88.8446 14.9259 88.4911C14.5147 86.2699 14.2217 84.0072 14.0535 81.7099C28.5294 79.0519 42.9999 76.3859 57.3398 73.5765V69.0862C54.7001 68.649 53.9462 68.4982 52.4743 68.2038L52.3958 68.1881C46.3969 66.9814 40.405 66.2959 34.4102 65.61C29.1485 65.0079 23.8846 64.4057 18.6116 63.4505C16.6323 63.088 15.9307 62.3911 15.9531 61.1557C22.9957 34.5719 47.2183 14.9781 76.0172 14.9781C104.689 14.9781 128.825 34.3996 135.987 60.8048ZM73.4573 37.0439C76.399 40.2572 74.6521 42.3087 72.0071 44.4592C70.0428 46.0633 68.1415 47.7203 66.1442 49.4609C64.5305 50.8674 62.8542 52.3283 61.0313 53.8601H91.0416C89.2627 52.3227 87.5886 50.8716 85.974 49.472C83.5651 47.3839 81.2887 45.4107 78.9946 43.4375C76.9264 41.732 76.399 39.9523 78.1706 37.6124C78.4872 37.1427 78.7021 36.612 78.8014 36.0544C78.9008 35.4967 78.8824 34.9245 78.7474 34.3744C78.1336 32.4307 77.3175 30.5617 76.6588 29.0531C76.4156 28.4962 76.1939 27.9884 76.0117 27.5441C75.8517 27.9392 75.6664 28.3863 75.4643 28.8739C74.8027 30.4705 73.9607 32.5019 73.2348 34.5721C73.0838 34.9743 73.0253 35.4055 73.0639 35.8334C73.1024 36.2613 73.2369 36.6751 73.4573 37.0439ZM66.6758 74.2439C66.7582 73.8731 66.7582 73.5024 66.7582 73.1316V69.7535C66.7582 69.4047 66.7627 69.055 66.7673 68.7053C66.7765 68.0059 66.7856 67.3065 66.7582 66.6144C66.7417 66.2684 66.7087 65.9223 66.6675 65.5845C66.622 65.2144 66.2301 64.9191 65.8401 64.6251C65.6657 64.4937 65.4917 64.3625 65.3491 64.225C65.2251 64.349 65.0693 64.473 64.9128 64.5974C64.5598 64.8783 64.2038 65.1615 64.2038 65.4527C64.1049 68.4517 64.0884 71.4508 64.2038 74.4499C64.2151 74.7721 64.6181 75.0788 65.0217 75.3859C65.2064 75.5264 65.3912 75.6671 65.5386 75.8094C65.663 75.6461 65.816 75.4861 65.969 75.326C66.3025 74.9771 66.6362 74.6279 66.6758 74.2439ZM73.0534 75.3865C73.3784 75.0898 73.7045 74.7921 73.7045 74.4828H73.6716C73.7622 71.4755 73.7704 68.46 73.7045 65.4444C73.6933 65.1691 73.3486 64.89 73.0025 64.6096C72.8411 64.4788 72.6793 64.3478 72.5509 64.2168C72.4151 64.3739 72.2449 64.5275 72.0742 64.6816C71.7166 65.0044 71.3569 65.3291 71.3067 65.6916C71.1994 67.087 71.1829 68.4878 71.2572 69.8854C71.1885 71.3904 71.2105 72.8981 71.3231 74.4004C71.3627 74.7507 71.7508 75.0622 72.137 75.3721C72.3141 75.5143 72.4908 75.6561 72.6333 75.8011C72.7511 75.6624 72.9021 75.5246 73.0534 75.3865ZM79.9133 75.305C80.3067 74.9271 80.6982 74.551 80.7662 74.1203C80.894 72.7177 80.9133 71.3074 80.8239 69.9018C80.8887 68.5012 80.8667 67.0978 80.758 65.6998C80.7129 65.3338 80.3445 65.0101 79.9764 64.6866C79.8059 64.5368 79.6355 64.3871 79.4973 64.2333C79.3684 64.3963 79.2034 64.5577 79.0386 64.719C78.6868 65.063 78.3354 65.4068 78.3354 65.7658C78.2201 68.5671 78.2201 71.3767 78.3354 74.178C78.3467 74.5728 78.6707 74.9444 78.993 75.314C79.1415 75.4844 79.2897 75.6543 79.4066 75.8258C79.5558 75.6484 79.7348 75.4765 79.9133 75.305ZM87.0355 75.3505C87.3885 75.0319 87.7426 74.7122 87.7868 74.3593L87.8197 74.3263C87.8951 73.648 87.9226 72.9652 87.9021 72.283V67.9327C87.9189 67.187 87.8859 66.4411 87.8032 65.6998C87.7635 65.3371 87.3885 65.0172 87.0134 64.6973C86.8433 64.5522 86.6731 64.4071 86.5343 64.258C86.4008 64.43 86.2256 64.5892 86.0561 64.7433C85.7548 65.0173 85.4713 65.275 85.4713 65.5598C85.3642 68.5506 85.3724 71.5579 85.4713 74.5488C85.4769 74.8575 85.8 75.1394 86.1252 75.4233C86.2773 75.5561 86.4299 75.6893 86.5507 75.8258C86.687 75.6651 86.8611 75.5079 87.0355 75.3505ZM58.2956 61.7203H93.9668L93.9997 61.6874C94.6507 57.2299 94.6013 57.1475 90.8109 57.1723H61.2868C57.7252 57.18 57.7542 57.4102 58.1961 60.9198C58.2276 61.1696 58.2611 61.4361 58.2956 61.7203Z" fill="url(#paint0_linear_2_2)"/>
<defs>
<linearGradient id="paint0_linear_2_2" x1="75.8716" y1="31.433" x2="75.5009" y2="142.201" gradientUnits="userSpaceOnUse">
<stop stop-color="#3ED2FF"/>
<stop offset="0.98" stop-color="#491DF5"/>
</linearGradient>
</defs>
</svg>
