/* XPM */
static char *graphic[] = {
/* width height num_colors chars_per_pixel */
"32 32 340 2", 
/* colors */
"   c None",
".  c #43C4FE",
"X  c #757AF9",
"o  c #4987FB",
"O  c None",
"+  c None",
"@  c #6AA4FB",
"#  c None",
"$  c None",
"%  c #4474FA",
"&  c #5E47F7",
"*  c #5486FA",
"=  c #437BFA",
"-  c #4D83FA",
";  c #A9B0FB",
":  c #AA9AFA",
">  c #81D7FE",
",  c #E1F3FE",
"<  c #4655F8",
"1  c #D6D6FD",
"2  c #D8F1FE",
"3  c #C4E1FE",
"4  c #455CF8",
"5  c #F0F0FD",
"6  c #E4E9FD",
"7  c None",
"8  c None",
"9  c #C7D7FD",
"0  c #FFFEFF",
"q  c #41D2FF",
"w  c #71B4FC",
"e  c #BFDBFD",
"r  c #52A3FC",
"t  c #7264F8",
"y  c #A8D3FD",
"u  c #5D86FA",
"i  c #F5F4FE",
"p  c #3ECBFE",
"a  c #A6D4FD",
"s  c #4B91FB",
"d  c #6679F9",
"f  c #ECF2FE",
"g  c #73DEFF",
"h  c #EAF3FE",
"j  c #CFE0FE",
"k  c #9E91FA",
"l  c #473DF7",
"z  c #4958F8",
"x  c #4834F6",
"c  c #3ECBFF",
"v  c #FDFDFF",
"b  c #FBFEFF",
"n  c #729CFB",
"m  c #40BBFE",
"M  c #55B5FD",
"N  c #6555F8",
"B  c #80DCFF",
"V  c None",
"C  c #4A89FB",
"Z  c #4585FB",
"A  c #CED6FC",
"S  c None",
"D  c #83E1FF",
"F  c #C7D3FC",
"G  c #79CAFE",
"H  c #41A3FC",
"J  c #F4F9FE",
"K  c #7BBAFD",
"L  c #AB9CFA",
"P  c #DAECFE",
"I  c #98BDFC",
"U  c #C9E1FE",
"Y  c #CCE6FE",
"T  c #B5EDFF",
"R  c #ECEEFD",
"E  c #B1C4FD",
"W  c #FBFCFF",
"Q  c #F9FDFF",
"!  c #72B6FC",
"~  c #7391FA",
"^  c #B8C5FC",
"/  c #5F56F8",
"(  c #EBE8FE",
")  c #D5F5FF",
"_  c #46A5FC",
"`  c #F4F7FE",
"'  c #DEE8FE",
"]  c #D2E1FE",
"[  c #497FFA",
"{  c #93B7FC",
"}  c #91B8FC",
"|  c #4755F8",
" . c #446CF9",
".. c #CFE9FE",
"X. c #DFDFFD",
"o. c #4A2FF6",
"O. c #7CAFFC",
"+. c #87A1FB",
"@. c #F1F0FD",
"#. c #FFFFFF",
"$. c #41CCFF",
"%. c #FEFFFF",
"&. c #C6D8FD",
"*. c #B5CDFD",
"=. c #6BB1FC",
"-. c #5DABFC",
";. c #5991FB",
":. c #51A4FC",
">. c #D6DBFC",
",. c #5A50F8",
"<. c #69A3FB",
"1. c #42B4FD",
"2. c #F1F0FE",
"3. c #3FCBFE",
"4. c #FFFFFF",
"5. c #EAEDFE",
"6. c #F7FAFE",
"7. c #EDF2FE",
"8. c #6160F8",
"9. c #FEFEFE",
"0. c #FEFEFE",
"q. c #464DF8",
"w. c #FEFEFE",
"e. c #E9F4FE",
"r. c #DDEDFE",
"t. c #E1DCFD",
"y. c #87CAFD",
"u. c #C5DFFE",
"i. c #8DB8FC",
"p. c #4744F7",
"a. c #ECEAFD",
"s. c #EFEFFD",
"d. c #3FCBFF",
"f. c #41BBFE",
"g. c #F5FBFF",
"h. c #3ED2FF",
"j. c #B1CDFD",
"k. c #FEFEFE",
"l. c #FEFEFE",
"z. c #41ACFD",
"x. c #FEFEFE",
"c. c #81DCFF",
"v. c #FEFEFE",
"b. c #439CFC",
"n. c #40B3FD",
"m. c #FEFEFE",
"M. c #FEFEFE",
"N. c #FCFCFE",
"B. c #FEFEFE",
"V. c #42A3FC",
"C. c #457DFA",
"Z. c #D2CEFD",
"A. c #9FE5FF",
"S. c #4DC0FE",
"D. c #54B4FD",
"F. c #F1FBFF",
"G. c #89E3FF",
"H. c #4DA2FC",
"J. c #EDEEFE",
"K. c #756CF8",
"L. c #6377F9",
"P. c #5F5DF8",
"I. c #437CFA",
"U. c #88B0FC",
"Y. c #7DAFFC",
"T. c #BEC9FD",
"R. c #6990FB",
"E. c #FFFFFF",
"W. c #B8CCFD",
"Q. c #43D2FF",
"!. c None",
"~. c #EFFAFF",
"^. c #98D1FE",
"/. c #735EF8",
"(. c #4E8AFB",
"). c #FEFEFE",
"_. c None",
"`. c #FEFEFE",
"'. c #AAD3FD",
"]. c None",
"[. c #5295FB",
"{. c #4473FA",
"}. c #75DEFF",
"|. c #474DF8",
" X c #4968F9",
".X c #4654F8",
"XX c #6ECCFE",
"oX c #88CAFD",
"OX c #7BAEFC",
"+X c #FEFEFE",
"@X c #51D6FF",
"#X c #4835F6",
"$X c #75B1FC",
"%X c #FDFEFF",
"&X c #F4FCFF",
"*X c #6AB0FC",
"=X c #519CFC",
"-X c #B7D1FD",
";X c #A8C5FD",
":X c #BFDAFD",
">X c #EBFAFF",
",X c #5D94FB",
"<X c #7378F9",
"1X c #8CE4FF",
"2X c #3FC3FE",
"3X c #4C89FB",
"4X c #FEFEFE",
"5X c #D1DCFC",
"6X c #FEFEFE",
"7X c #ABD7FD",
"8X c #4FAAFC",
"9X c #9FD0FD",
"0X c #48A7FC",
"qX c #F1F5FE",
"wX c #8EC5FD",
"eX c #E5EEFE",
"rX c #D4E3FE",
"tX c #473CF7",
"yX c #68DCFF",
"uX c #4957F8",
"iX c #6CCBFE",
"pX c #FEFEFE",
"aX c #FEFEFE",
"sX c #543AF6",
"dX c #FEFEFE",
"fX c #79C9FD",
"gX c #A0E5FF",
"hX c #779FFB",
"jX c #F1F5FF",
"kX c #74B6FC",
"lX c #B0CCFD",
"zX c #748BFA",
"xX c #FEFEFE",
"cX c #FEFEFE",
"vX c #40ABFD",
"bX c #767BF9",
"nX c #7062F8",
"mX c #E0F7FF",
"MX c #A3CCFD",
"NX c #EAEEFC",
"BX c #5680FA",
"VX c #FBFBFE",
"CX c #46A6FC",
"ZX c #FEFEFE",
"AX c #F4F8FE",
"SX c #EAF0FE",
"DX c #5F48F7",
"FX c #FEFEFE",
"GX c #8CC4FD",
"HX c #447CFA",
"JX c #82D8FE",
"KX c #E2F4FE",
"LX c #D9F2FE",
"PX c #54D7FF",
"IX c #8C7BF9",
"UX c #6A90FB",
"YX c #FBFBFF",
"TX c #A1E9FF",
"RX c #42D3FF",
"EX c #CEE2FD",
"WX c #7573F9",
"QX c #CAC8FC",
"!X c #4CB0FD",
"~X c #6BB2FC",
"^X c #FEFEFE",
"/X c #C6CAFC",
"(X c #FEFEFE",
")X c #53A4FC",
"_X c #FEFEFE",
"`X c #7580F9",
"'X c #E9E8FE",
"]X c #FEFEFE",
"[X c #41CBFE",
"{X c #99DEFE",
"}X c #ECEDFE",
"|X c #514FF8",
" o c #76DEFF",
".o c None",
"Xo c #EBF4FE",
"oo c #4564F9",
"Oo c #4A2EF6",
"+o c #8CA4FB",
"@o c #4745F7",
"#o c #C9EBFE",
"$o c #B5DBFE",
"%o c #464CF7",
"&o c #FEFEFF",
"*o c #F7FBFF",
"=o c #41BCFE",
"-o c #ECE9FC",
";o c #40C3FE",
":o c #7668F8",
">o c #E9E6FE",
",o c #F7F9FE",
"<o c #7485F9",
"1o c #7ACBFE",
"2o c #42A4FC",
"3o c #4B50F8",
"4o c #464CF8",
"5o c #4867F9",
"6o c #A295FA",
"7o c #74A3FC",
"8o c #E4E0FD",
"9o c #D3D5FD",
"0o c #7AADFC",
"qo c #EDEFFD",
"wo c #5CB1FD",
"eo c None",
"ro c None",
"to c #74B0FC",
"yo c None",
"uo c #FCFDFF",
"io c #E2EEFD",
"po c #FAFEFF",
"ao c #C8C5FC",
"so c #3ED1FF",
"do c #F1FCFF",
"fo c #AAC9FD",
"go c #6D9EFB",
"ho c #41ABFD",
"jo c #489FFC",
"ko c #6057F8",
"lo c #E8EBFE",
"zo c None",
"xo c #FCFBFE",
"co c None",
"vo c #F0F4FE",
"bo c #E9F1FE",
"no c #A797FA",
"mo c #D9ECFE",
"Mo c #D3D3FD",
"No c #CBE6FE",
"Bo c #EFECFD",
"Vo c #4A37F6",
"Co c #4DBFFE",
"Zo c #FAFCFF",
"Ao c #F8FDFF",
"So c #73B5FC",
"Do c #539EFC",
"Fo c #AFA0FB",
/* pixels */
"                  ].coeoB.+XFX_X_XFX+XB.S co_.                  ",
"              ].$ v.dX^XE.E.E.E.E.E.E.E.^XaXx.# ].              ",
"            yow.cX]XE.E.E.%XAo&X&XAo%XE.E.E.]XcX0.yo            ",
"        !.# `._XE.E.pomXT 1Xg yXyXg 1XT mXpoE.E.(X).+ !.        ",
"      !..o6X]XE.b ) G.PXq h.h.h.h.h.h.q PXG.) b E.]X6X8 !.      ",
"      # 6X]XE.F.TX@Xh.h.h.h.h.RXRXh.h.h.h.h.@XTXdoE.]X4X+       ",
"    yo`.]XE.>XD Q.sosososososo}. ososososososoQ.D >XE.]X).ro    ",
"  ].w._XE.~.c.[Xp 3.d.p p p 3.gXA.3.c d.d.c c c $.B ~.E.(X0._.  ",
"  $ cXE.Q {X. 2X2X2X2X2X2X2X2X> JX;o2X2X2X2X2X2X2X. {XQ E.cX#   ",
"_.v.]X%.#oCom m m m m m m f.iX2 LXXX=om m m m m m m S.#o%.]Xl._.",
"coaXE.g.fXn.n.n.n.n.n.n.1.G , uouoKX1o1.n.n.n.n.n.n.n.fXg.E.pXco",
"eo^XE...!XvXvXvXvXvXvXhoD.y.^.^.^.^.oXM z.vXvXvXvXvXvX!X..E.^XV ",
"B.E.&o9XV.H H H H H H _ a NoY Y Y Y Y 7X0XH H H 2oCX8Xwo$o%.E.M.",
"+XE.&oP y wXK ~X-.:.job.r kX=.kXSo*Xw )XH.-.! GX'.3 moe.*oE.E.4.",
"FXE.E.E.E.%XZoJ Xor.U MX=XEX$X:Xe toioDou.h 6.%XE.E.E.E.E.E.E.ZX",
"_XE.E.E.E.E.E.uoAXeXj fo[.OX@ O.Y.<.0os i.-XrXbo,o%XE.E.E.E.E._X",
"_XE.%Xvo' &.;XU.go;.3Xo } j.lXj.j.lXj.I C Z (.,X7o{ *.] SXv E._X",
"ZXE.f hX* [ HX= = = I.[ W.W E.E.E.E.v 9 - I.I.I.I.I.C.- n 7.E.ZX",
"+XE.qXUX{.{.% % % % % % BX5Xv E.E.` E u % % % % % % % % R.jXE.4.",
"B.E.uo+o . . . . . . . . .F W &oE.NX~  . . . . . . . . .+.W E.m.",
"S ^XE.T. XooooooooooooooooA v v E.6 zXoooooooooooooooo5o^ E.^XV ",
"coaXE.5.d 4 4 4 4 4 4 4 4 >.&oE.E.qo<o4 4 4 4 4 4 4 4 L.loE.pXzo",
"_.x.]Xv ; uX.X.X.X.X.X.X| /XE.&oE.R `X< .X.X.X.X.X.Xz ; v ]Xk._.",
"  # cXE.}X<X%o%o%o%o%o%o3o9oE.E.E.s.X |.%o%o4o%o4oq.bXJ.E.xX+   ",
"  ].0.(X&oMoP.p.p.p.p.p.|XX.E.&oE.5 WXp.p.p.p.p.@o8.1 &o(X9._.  ",
"    ro).]Xv ao/ tXtXtXtX,.'XE.E.E.@.K.tXtXtXtXl koQXv ]X#.ro    ",
"      + 6X]Xv Z.t Vox x N 2.E.&oE.a.:o#X#X#XVonXZ.v ]X4XO       ",
"      !.8 6X]X&o( 6oDXOo/.i E.E.E.BoIXsXo.& k >o&o]X4X7 !.      ",
"        !.+ ).(XE.N.t.L noYXE.&oE.-o8o: Fot.xoE.(X#.O !.        ",
"            ro0.cX]XE.&oVX0 E.E.E.E.E.v &oE.]XxX9.ro            ",
"              _.# l.aX^XE.E.E.E.E.E.E.E.^XpXk.+ _.              ",
"                  _.zoV M.4.ZX_X_XZX4.m.V zo_.                  "
};
