<svg width="24" height="24" viewBox="0 0 24 24" fill="none" xmlns="http://www.w3.org/2000/svg">
<circle cx="12" cy="12" r="11.5" fill="white" stroke="#D2D2D2"/>
<path fill-rule="evenodd" clip-rule="evenodd" d="M21.4717 9.60076C19.285 9.9304 17.1084 10.2714 15.0086 10.6963C14.9911 10.6992 14.9932 10.833 14.9962 11.0165C14.9985 11.1598 15.0013 11.3335 14.9956 11.499L21.7546 12.8415C21.7443 13.2921 21.694 13.7399 21.6077 14.1811C21.4903 14.7463 21.3242 15.2937 21.114 15.8187C19.9469 18.6689 17.3391 20.9867 14.5363 21.5577C14.5086 21.4438 14.4812 21.3294 14.4512 21.2042C14.4264 21.1007 14.3998 20.9898 14.3698 20.8656L12.2972 21.4211L12.2634 21.3314C12.4266 21.2356 12.5886 21.1372 12.7507 21.0387C13.1234 20.8123 13.4964 20.5857 13.8845 20.3908C14.3399 20.1631 14.3997 19.8652 14.1889 19.3969L12.2764 19.9173C12.2595 19.8887 12.2439 19.8601 12.2284 19.8316L12.2283 19.8314C12.3709 19.7442 12.5123 19.6549 12.6536 19.5656C12.9867 19.3553 13.3196 19.1451 13.6685 18.9624C14.0888 18.7451 14.254 18.4745 14.0172 17.9477L12.2491 18.39L12.2139 18.3106C12.3485 18.2248 12.4804 18.1365 12.6121 18.0483C12.9136 17.8466 13.2145 17.6452 13.5449 17.4741C14.0198 17.2282 14.068 16.9147 13.8429 16.4594L12.2686 16.877L12.2217 16.7768C12.3081 16.718 12.3943 16.6582 12.4809 16.5981C12.7964 16.3794 13.1163 16.1575 13.4604 15.9676C13.8988 15.7257 13.8884 15.4213 13.6998 14.9959L12.2439 15.351L12.1424 15.165C12.3815 15.0006 12.6194 14.8341 12.8573 14.6677C13.4476 14.2546 14.038 13.8415 14.6482 13.4595C14.9758 13.2543 14.9467 13.0184 14.9151 12.7622C14.8979 12.6236 14.8801 12.4791 14.9175 12.3303H9.52335C9.28656 12.3289 9.07969 12.3836 9.13303 12.6555C9.14704 12.7269 9.14894 12.7967 9.15081 12.8655C9.15606 13.0587 9.1611 13.2442 9.43358 13.436C9.60259 13.5548 9.74726 13.6365 9.86789 13.7047C10.231 13.9099 10.3763 13.992 10.3118 14.5887C10.1437 16.1093 9.96616 17.6264 9.78872 19.1428C9.70248 19.8797 9.61626 20.6165 9.53116 21.3535C9.51057 21.4502 9.48495 21.5457 9.4544 21.6397C9.28351 21.5754 9.11332 21.5161 8.94489 21.4574C8.59522 21.3354 8.25314 21.2162 7.92825 21.0608C4.98526 19.6454 3.12344 17.357 2.41566 14.1659C2.39822 14.0924 2.37905 14.0281 2.35674 13.9723C2.29181 13.6216 2.24554 13.2643 2.21899 12.9016C4.50467 12.4819 6.78947 12.0609 9.05367 11.6173V10.9083C8.63687 10.8393 8.51783 10.8155 8.28544 10.769L8.27303 10.7665C7.32584 10.576 6.37976 10.4678 5.43321 10.3595C4.60242 10.2644 3.77126 10.1693 2.93869 10.0185C2.62617 9.96126 2.51539 9.85122 2.51893 9.65616C3.63091 5.45871 7.45553 2.36496 12.0027 2.36496C16.5299 2.36496 20.3408 5.43152 21.4717 9.60076ZM11.5985 5.84903C12.063 6.35639 11.7872 6.68032 11.3696 7.01986C11.0594 7.27314 10.7592 7.53478 10.4438 7.80962C10.189 8.03168 9.92436 8.26237 9.63654 8.50422H14.375C14.0941 8.26148 13.8298 8.03235 13.5749 7.81137C13.1945 7.48166 12.8351 7.1701 12.4729 6.85855C12.1463 6.58925 12.063 6.30825 12.3427 5.93879C12.3927 5.86463 12.4267 5.78083 12.4423 5.69279C12.458 5.60474 12.4551 5.51438 12.4338 5.42752C12.3369 5.12063 12.208 4.82552 12.104 4.58733C12.0656 4.49939 12.0306 4.41921 12.0019 4.34906C11.9766 4.41145 11.9473 4.48204 11.9154 4.55904C11.811 4.81112 11.678 5.13188 11.5634 5.45875C11.5396 5.52226 11.5303 5.59033 11.5364 5.6579C11.5425 5.72546 11.5637 5.79079 11.5985 5.84903ZM10.5278 11.7227C10.5408 11.6642 10.5408 11.6056 10.5408 11.5471V11.0137C10.5408 10.9586 10.5415 10.9034 10.5422 10.8482C10.5437 10.7378 10.5451 10.6273 10.5408 10.5181C10.5382 10.4634 10.533 10.4088 10.5265 10.3554C10.5193 10.297 10.4574 10.2504 10.3958 10.204C10.3683 10.1832 10.3408 10.1625 10.3183 10.1408C10.2987 10.1604 10.2741 10.1799 10.2494 10.1996C10.1937 10.2439 10.1375 10.2887 10.1375 10.3346C10.1218 10.8082 10.1192 11.2817 10.1375 11.7552C10.1392 11.8061 10.2029 11.8545 10.2666 11.903C10.2958 11.9252 10.3249 11.9474 10.3482 11.9699C10.3679 11.9441 10.392 11.9188 10.4162 11.8936C10.4688 11.8385 10.5215 11.7834 10.5278 11.7227ZM11.5348 11.9031C11.5861 11.8563 11.6376 11.8093 11.6376 11.7604H11.6324C11.6467 11.2856 11.648 10.8095 11.6376 10.3333C11.6358 10.2899 11.5814 10.2458 11.5267 10.2015C11.5012 10.1809 11.4757 10.1602 11.4554 10.1395C11.434 10.1643 11.4071 10.1885 11.3802 10.2129C11.3237 10.2638 11.2669 10.3151 11.259 10.3724C11.242 10.5927 11.2394 10.8139 11.2512 11.0345C11.2403 11.2722 11.2438 11.5102 11.2616 11.7474C11.2678 11.8027 11.3291 11.8519 11.3901 11.9009C11.418 11.9233 11.4459 11.9457 11.4684 11.9686C11.487 11.9467 11.5109 11.9249 11.5348 11.9031ZM12.6179 11.8903C12.68 11.8306 12.7418 11.7712 12.7526 11.7032C12.7728 11.4817 12.7758 11.2591 12.7617 11.0371C12.7719 10.816 12.7684 10.5944 12.7513 10.3737C12.7442 10.3159 12.686 10.2647 12.6279 10.2137C12.6009 10.19 12.574 10.1664 12.5522 10.1421C12.5319 10.1678 12.5058 10.1933 12.4798 10.2188C12.4243 10.2731 12.3688 10.3274 12.3688 10.3841C12.3506 10.8264 12.3506 11.27 12.3688 11.7123C12.3705 11.7746 12.4217 11.8333 12.4726 11.8917C12.496 11.9186 12.5194 11.9454 12.5379 11.9725C12.5615 11.9445 12.5897 11.9173 12.6179 11.8903ZM13.7425 11.8974C13.7982 11.8471 13.8541 11.7967 13.8611 11.7409L13.8663 11.7357C13.8782 11.6286 13.8825 11.5208 13.8793 11.4131V10.7262C13.8819 10.6085 13.8767 10.4907 13.8637 10.3737C13.8574 10.3164 13.7982 10.2659 13.739 10.2154C13.7121 10.1925 13.6852 10.1695 13.6633 10.146C13.6422 10.1732 13.6146 10.1983 13.5878 10.2226C13.5403 10.2659 13.4955 10.3066 13.4955 10.3515C13.4786 10.8238 13.4799 11.2986 13.4955 11.7709C13.4964 11.8196 13.5474 11.8641 13.5987 11.9089C13.6228 11.9299 13.6468 11.9509 13.6659 11.9725C13.6874 11.9471 13.7149 11.9223 13.7425 11.8974ZM9.20459 9.74531H14.8369L14.8421 9.7401C14.9449 9.0363 14.9371 9.02329 14.3386 9.02719H9.67688C9.11452 9.02841 9.1191 9.06477 9.18888 9.61891C9.19385 9.65836 9.19914 9.70043 9.20459 9.74531Z" fill="url(#paint0_linear_31_146)"/>
<defs>
<linearGradient id="paint0_linear_31_146" x1="11.9797" y1="4.96309" x2="11.9212" y2="22.4528" gradientUnits="userSpaceOnUse">
<stop stop-color="#3ED2FF"/>
<stop offset="0.98" stop-color="#491DF5"/>
</linearGradient>
</defs>
</svg>
